<svg xmlns="http://www.w3.org/2000/svg">
  <symbol id="football-icon" viewBox="0 0 800.000000 401.000000" preserveAspectRatio="xMidYMid meet">
    <g transform="translate(0.000000,401.000000) scale(0.100000,-0.100000)" fill="currentColor" stroke="none">
      <path d="M3700 3989 c-807 -46 -1626 -284 -2375 -690 -125 -67 -111 -48 -182
      -254 -144 -422 -200 -869 -158 -1270 19 -183 39 -292 80 -445 58 -214 158
      -456 261 -631 l44 -76 158 -76 c583 -282 1290 -475 1967 -537 175 -16 847 -13
      1016 5 729 77 1442 294 2075 632 l141 75 61 127 c133 275 199 487 248 791 29
      179 27 623 -4 820 -30 187 -62 328 -117 504 -70 226 -70 225 -167 281 -924
      534 -2023 802 -3048 744z m375 -468 c72 -33 74 -39 77 -206 l3 -150 105 -7
      c273 -19 733 -84 873 -124 15 -5 17 4 17 96 0 124 13 160 66 185 81 38 183 28
      236 -25 l28 -28 0 -159 0 -158 138 -43 c300 -95 636 -233 702 -289 103 -88 94
      -192 -23 -270 -60 -40 -101 -52 -197 -60 -100 -7 -158 6 -309 73 -119 53 -294
      124 -306 124 -3 0 -5 -48 -5 -106 0 -105 0 -106 -30 -134 -58 -54 -174 -62
      -242 -16 -52 35 -58 56 -58 218 l0 147 -37 10 c-289 75 -594 127 -865 146
      l-98 7 0 -142 0 -142 -28 -28 c-42 -41 -125 -57 -196 -36 -89 26 -96 42 -96
      209 l0 140 -117 -7 c-232 -13 -435 -45 -695 -107 l-168 -41 0 -165 0 -165 -28
      -28 c-64 -63 -189 -65 -262 -4 l-30 26 0 109 c0 60 -2 109 -5 109 -3 0 -89
      -40 -192 -89 -218 -102 -264 -116 -377 -108 -91 5 -151 26 -213 71 -96 70
      -101 191 -11 260 82 62 465 232 698 311 l95 32 3 156 3 156 30 25 c72 61 198
      59 261 -4 27 -28 28 -31 28 -134 0 -58 4 -106 9 -106 5 0 53 9 107 20 55 12
      171 31 259 45 141 21 234 30 533 51 l72 6 0 147 0 147 28 26 c52 49 146 62
      217 29z"/>
      <path d="M645 2851 c-284 -226 -505 -470 -598 -660 -40 -81 -42 -92 -45 -188
      -4 -118 8 -172 64 -278 130 -248 403 -525 770 -783 l32 -22 -38 98 c-137 349
      -197 697 -187 1087 8 303 44 539 123 818 3 9 2 17 -3 17 -4 -1 -57 -40 -118
      -89z"/>
      <path d="M7280 2878 c0 -7 9 -45 19 -83 29 -105 58 -273 77 -435 25 -218 16
      -592 -19 -790 -29 -164 -64 -305 -107 -430 -16 -46 -27 -86 -25 -88 13 -13
      306 240 436 376 128 134 201 232 261 350 74 147 82 225 36 350 -65 176 -252
      405 -513 629 -137 118 -165 139 -165 121z"/>
    </g>
  </symbol>
</svg>
